<svg xmlns="http://www.w3.org/2000/svg" viewBox="0 0 290 128" width="290" height="128">
  <defs>
    <linearGradient id="hexGrad" x1="0" y1="0" x2="0.3" y2="1">
      <stop offset="0" stop-color="#54b89c"/>
      <stop offset="1" stop-color="#2d6b5a"/>
    </linearGradient>
    <linearGradient id="textGrad" x1="0" y1="0" x2="0" y2="1">
      <stop offset="0" stop-color="#3c8772"/>
      <stop offset="1" stop-color="#2d6b5a"/>
    </linearGradient>
    <marker id="arrow" viewBox="0 0 10 10" refX="9" refY="5"
            markerWidth="5" markerHeight="5" orient="auto">
      <path d="M 0,1 L 9,5 L 0,9 z" fill="#ffffff" fill-opacity="0.85"/>
    </marker>
  </defs>

  <!-- ===== Hexagon icon ===== -->
  <g>
    <polygon points="64,10 111,37 111,91 64,118 17,91 17,37"
             fill="url(#hexGrad)"/>
    <polygon points="64,24 99,44 99,84 64,104 29,84 29,44"
             fill="none" stroke="#ffffff" stroke-width="2" stroke-opacity="0.22"/>
    <line x1="68.4" y1="46.9" x2="80.6" y2="69.1"
          stroke="#ffffff" stroke-width="2.5" stroke-opacity="0.6"
          marker-end="url(#arrow)"/>
    <line x1="76" y1="77" x2="52" y2="77"
          stroke="#ffffff" stroke-width="2.5" stroke-opacity="0.6"
          marker-end="url(#arrow)"/>
    <line x1="47.4" y1="69.1" x2="59.6" y2="46.9"
          stroke="#ffffff" stroke-width="2.5" stroke-opacity="0.6"
          marker-end="url(#arrow)"/>
    <circle cx="64" cy="39" r="9" fill="#ffffff"/>
    <circle cx="85" cy="77" r="9" fill="#ffffff"/>
    <circle cx="43" cy="77" r="9" fill="#ffffff"/>
    <circle cx="64" cy="64" r="5.5" fill="#ffffff" fill-opacity="0.92"/>
    <circle cx="64" cy="64" r="2.5" fill="#2d6b5a"/>
  </g>

  <!-- ===== CoreC text ===== -->
  <text x="130" y="64" font-family="system-ui,sans-serif" font-size="50" font-weight="800"
        fill="url(#textGrad)" letter-spacing="-1"
        dominant-baseline="central">CoreC</text>
</svg>
